<svg width="19" height="19" viewBox="0 0 19 19" fill="none" xmlns="http://www.w3.org/2000/svg">
<path fill-rule="evenodd" clip-rule="evenodd" d="M16 13C17.6569 13 19 14.3431 19 16C19 17.6569 17.6569 19 16 19C14.3431 19 13 17.6569 13 16C13 14.3431 14.3431 13 16 13ZM9.5 0C14.7467 0 19 4.25329 19 9.5C19 10.1746 18.9297 10.8327 18.796 11.4675L18.7083 11.8455C18.6705 11.994 18.5196 12.0838 18.371 12.0461L18.3332 12.0335L18.202 11.9609C17.5479 11.603 16.7977 11.4 16 11.4C13.4595 11.4 11.4 13.4595 11.4 16C11.4 16.7346 11.5722 17.429 11.8784 18.045L12.0063 18.2843C12.0869 18.4238 12.0391 18.6022 11.8996 18.6828L11.8633 18.7005L11.825 18.7131C11.0815 18.9005 10.3024 19 9.5 19C4.25329 19 0 14.7467 0 9.5C0 4.25329 4.25329 0 9.5 0Z" fill="white"/>
</svg>
