<svg width="20" height="20" viewBox="0 0 20 20" fill="none" xmlns="http://www.w3.org/2000/svg">
<path fill-rule="evenodd" clip-rule="evenodd" d="M6.75 3.53605C6.75 8.50661 10.7794 12.536 15.75 12.536C16.5976 12.536 17.4179 12.4189 18.1955 12.1998L18.5642 12.0872C18.8854 11.9798 19.2329 12.1532 19.3403 12.4745C19.3743 12.576 19.3808 12.6841 19.3603 12.7879L19.3307 12.89C17.8845 16.6321 14.2522 19.286 10 19.286C4.47715 19.286 0 14.8089 0 9.28605C0 5.22155 2.42487 1.72342 5.90686 0.159401L6.03049 0.105937L6.16785 0.05039C6.54221 -0.096321 6.96461 0.0882204 7.11132 0.462575C7.15893 0.584049 7.1728 0.715497 7.15239 0.843175L7.13064 0.938013C6.88304 1.76078 6.75 2.63288 6.75 3.53605Z" fill="white"/>
</svg>
