<svg width="20" height="21" viewBox="0 0 20 21" fill="none" xmlns="http://www.w3.org/2000/svg">
<path fill-rule="evenodd" clip-rule="evenodd" d="M17.1522 2.86769C15.1911 0.957828 12.7467 0 9.97041 0C7.20547 0 4.90149 1.02759 2.94055 3.07379C0.981911 5.11759 0 7.59371 0 10.4863C0 13.169 0.986062 15.4583 2.94978 17.3367C4.9097 19.2284 7.2781 20.1777 10.0381 20.1777H10.3697C11.0258 20.1659 11.5437 19.629 11.532 18.9784C11.5201 18.318 10.9813 17.7888 10.3208 17.7888H10.0381C7.9575 17.7888 6.19163 17.074 4.72407 15.6383C3.25735 14.2194 2.52857 12.5084 2.52857 10.4863C2.52857 8.27676 3.26148 6.40467 4.73195 4.85427C6.19953 3.30694 7.96227 2.53789 10.0381 2.53789C12.1198 2.53789 13.8946 3.24529 15.3782 4.66576C16.4632 5.72713 16.9807 6.92867 17.176 8.29595C17.1931 8.4161 17.2095 8.7436 17.2231 9.17298L17.2448 10.0717C17.2601 10.9095 16.7105 12.294 15.7597 12.3C14.809 12.306 14.4356 10.9095 14.396 10.1084L14.3917 10.0125C14.3788 9.70408 14.3671 9.20949 14.3566 8.52874L14.3317 6.27209C14.3244 5.64185 13.9664 5.1075 13.3523 5.04561L13.2056 5.03937C12.8072 5.03937 12.4543 5.23444 12.2373 5.53427L12.1625 5.65144C11.8892 5.42074 11.5671 5.23902 11.1982 5.10668C10.7222 4.92928 10.1869 4.84061 9.59687 4.84061C8.24269 4.84061 7.08377 5.35635 6.13858 6.37786C5.21309 7.39624 4.74925 8.61946 4.74925 10.035C4.74925 11.4819 5.21176 12.7367 6.13339 13.7858C7.07847 14.86 8.23932 15.4033 9.59687 15.4033C10.5781 15.4033 11.6392 14.9518 12.7801 14.0487C12.9571 13.9086 13.2061 13.9045 13.3876 14.0387L13.6157 14.1997C14.2969 14.6571 14.9495 14.8859 15.5736 14.8859C16.7722 14.8859 17.7751 14.496 18.6016 13.5548C19.3961 12.65 19.8017 11.1842 19.8017 9.79151C19.8017 7.0768 19.1148 4.77909 17.1522 2.86769ZM6.96149 10.1516C6.96149 8.4947 8.08078 7.15155 9.46149 7.15155C10.8422 7.15155 11.9615 8.4947 11.9615 10.1516C11.9615 11.8084 10.8422 13.1516 9.46149 13.1516C8.08078 13.1516 6.96149 11.8084 6.96149 10.1516Z" fill="white"/>
</svg>
