<svg width="23" height="17" viewBox="0 0 23 17" fill="none" xmlns="http://www.w3.org/2000/svg">
<path fill-rule="evenodd" clip-rule="evenodd" d="M6.76211 10.84C7.5476 10.84 8.18252 10.9264 8.83355 11.1022L9.07877 11.1723C9.42142 11.2755 9.61574 11.6377 9.51279 11.9813C9.49602 12.0372 9.47184 12.0905 9.44099 12.1398L9.37344 12.2304C8.75344 12.9914 8.3546 13.8277 8.07056 14.8052L7.99554 15.0828L7.95995 15.2475C7.92143 15.4723 7.90844 15.6308 7.90844 15.7895C7.90844 15.8786 7.91244 15.9667 7.92027 16.0538L7.93487 16.1834C7.98816 16.5774 7.71288 16.94 7.32001 16.9935C7.288 16.9978 7.25573 17 7.22343 17L1.20635 16.9992C0.540102 16.9991 0 16.4576 0 15.7895C0 15.7233 0.00541648 15.6573 0.016168 15.5921L0.0362863 15.4951C0.705708 12.8205 3.2178 10.84 6.76211 10.84ZM16.3597 10.84C19.8253 10.84 22.2891 12.6782 22.9341 15.3813L22.9752 15.5669C23.1079 16.2113 22.6944 16.8416 22.0517 16.9746C21.9727 16.9909 21.8922 16.9992 21.8115 16.9992H10.804C10.1377 16.9991 9.59763 16.4576 9.59763 15.7895C9.59763 15.7233 9.60304 15.6573 9.61379 15.5921L9.63391 15.4951C10.3033 12.8205 12.8154 10.84 16.3597 10.84ZM7.75538 0.132004C9.02619 0.437301 10.2332 1.46322 10.1624 3.87268L10.1524 4.09556C10.1178 4.14887 10.5921 4.3666 10.5921 5.06751C10.5921 5.53479 10.4455 5.85283 10.1524 6.02164C9.61532 8.36955 8.4964 9.54351 6.79567 9.54351C5.09495 9.54351 3.87786 8.36955 3.14443 6.02164C2.86888 5.90053 2.73111 5.58249 2.73111 5.06751C2.73111 4.55254 2.86888 4.22856 3.14443 4.09556C3.17375 2.14846 3.61616 1.03697 4.47168 0.761101C4.81128 0.652272 5.13258 0.652272 5.43557 0.761101C5.74202 0.0437852 6.51529 -0.165914 7.75538 0.132004ZM20.196 2.02409C21.0485 3.49498 21.2068 5.29164 20.6707 7.41407C20.6318 7.63446 20.7723 7.81139 21.092 7.94486L21.1338 7.96082L21.1863 7.97828C21.3048 8.01547 21.3708 8.14194 21.3337 8.26075C21.3232 8.29449 21.305 8.32502 21.2808 8.35009L21.2403 8.38333C20.7125 8.72179 19.1895 8.74683 18.3059 8.57146C17.7219 9.19649 17.0835 9.509 16.3909 9.509C15.6982 9.509 15.0528 9.19649 14.4547 8.57146C12.7815 8.43756 11.9448 7.18047 11.9448 4.80018C11.9448 2.62102 12.8178 1.18882 14.5638 0.50357C14.8648 0.385428 15.1953 0.365548 15.5083 0.446756L15.74 0.506876C17.3605 -0.506307 18.8458 -0.000568867 20.196 2.02409Z" fill="white"/>
</svg>
