<svg width="32" height="32" viewBox="0 0 32 32" fill="none" xmlns="http://www.w3.org/2000/svg">
<path fill-rule="evenodd" clip-rule="evenodd" d="M0.259432 6.75146C-1.08302 2.49826 3.03318 -1.39325 6.88767 0.485114L29.1843 11.3527C32.9386 13.1833 32.9386 18.8184 29.1843 20.6473L6.88767 31.5149C3.03318 33.3932 -1.08302 29.5017 0.259432 25.2502L2.66647 17.619C2.99794 16.5686 2.99794 15.4331 2.66647 14.3827L0.259432 6.75146Z" fill="black"/>
<path d="M2.64062 17.7061L2.66809 17.6191C2.99992 16.5681 2.99992 15.4319 2.66809 14.381L2.64062 14.2939H19.3332C19.7616 14.2939 20.1725 14.4737 20.4755 14.7936C20.7784 15.1136 20.9486 15.5475 20.9486 16C20.9486 16.4525 20.7784 16.8864 20.4755 17.2064C20.1725 17.5263 19.7616 17.7061 19.3332 17.7061H2.64062Z" fill="#9F9F9F"/>
</svg>
