<svg width="27" height="24" viewBox="0 0 27 24" fill="none" xmlns="http://www.w3.org/2000/svg">
<path fill-rule="evenodd" clip-rule="evenodd" d="M2 6.45784C0.895431 6.45784 0 7.35327 0 8.45784V15.4578C0 16.5624 0.895429 17.4578 2 17.4578H8.00069L13.9272 23.3848C15.0611 24.5188 17 23.7157 17 22.112V1.80366C17 0.2 15.0611 -0.603082 13.9272 0.530922L8.00069 6.45784H2ZM24.0337 11.9578C24.0337 8.88108 22.7806 6.28711 20.2264 4.11041C19.806 3.75219 19.7556 3.12103 20.1139 2.70068C20.4721 2.28032 21.1032 2.22996 21.5236 2.58818C24.5144 5.13689 26.0337 8.28195 26.0337 11.9578C26.0337 15.636 24.5122 18.7645 21.5174 21.2753C21.0942 21.6301 20.4635 21.5747 20.1087 21.1515C19.7538 20.7283 19.8093 20.0975 20.2325 19.7427C22.7827 17.6046 24.0337 15.0323 24.0337 11.9578Z" fill="white"/>
</svg>
